<?xml version="1.0" standalone="no"?>
<!DOCTYPE svg PUBLIC "-//W3C//DTD SVG 20010904//EN"
 "http://www.w3.org/TR/2001/REC-SVG-20010904/DTD/svg10.dtd">
<svg version="1.0" xmlns="http://www.w3.org/2000/svg"
 width="600.000000pt" height="300.000000pt" viewBox="0 0 600.000000 300.000000"
 preserveAspectRatio="xMidYMid meet">

<g transform="translate(0.000000,300.000000) scale(0.100000,-0.100000)"
fill="#000000" stroke="none">
<path d="M602 2023 l3 -68 65 0 65 0 3 68 3 67 -71 0 -71 0 3 -67z"/>
<path d="M600 1760 l0 -70 70 0 71 0 -3 68 -3 67 -67 3 -68 3 0 -71z"/>
<path d="M1500 1486 l0 -346 65 0 65 0 0 135 0 135 103 0 c86 0 110 4 153 24
85 39 119 103 112 206 -5 76 -40 129 -105 161 -44 22 -63 24 -220 27 l-173 4
0 -346z m302 234 c48 -14 68 -43 68 -102 0 -35 -6 -54 -24 -75 -23 -26 -29
-28 -120 -31 l-96 -4 0 111 0 111 68 0 c37 0 84 -5 104 -10z"/>
<path d="M2190 1485 l0 -345 60 0 59 0 3 345 3 345 -62 0 -63 0 0 -345z"/>
<path d="M2610 1659 l109 -171 -23 -36 c-103 -164 -186 -301 -186 -306 0 -3
31 -6 68 -6 l68 0 69 119 c38 66 71 118 74 116 3 -2 39 -55 80 -119 l75 -116
68 0 c37 0 68 3 68 6 0 4 -47 80 -106 171 l-105 165 27 46 c15 26 63 102 106
170 43 67 78 125 78 127 0 3 -31 5 -69 5 l-69 0 -67 -115 c-37 -63 -71 -115
-75 -115 -4 0 -41 52 -81 115 l-74 115 -72 0 -72 0 109 -171z"/>
<path d="M3270 1485 l0 -345 225 0 225 0 0 50 0 50 -160 0 -160 0 0 100 0 100
145 0 145 0 0 50 0 50 -145 0 -145 0 0 95 0 95 160 0 160 0 0 50 0 50 -225 0
-225 0 0 -345z"/>
<path d="M3930 1485 l0 -345 215 0 215 0 0 50 0 50 -150 0 -150 0 0 295 0 295
-65 0 -65 0 0 -345z"/>
<path d="M5085 1813 c-3 -10 -58 -157 -120 -328 -62 -170 -117 -318 -120 -328
-7 -16 -2 -18 60 -15 l67 3 27 75 27 75 135 3 134 3 29 -81 28 -80 64 0 c35 0
64 3 64 8 0 4 -55 158 -123 342 l-122 335 -71 3 c-61 2 -73 0 -79 -15z m122
-260 c23 -65 45 -126 48 -135 7 -16 -2 -18 -93 -18 l-100 0 46 135 c26 74 50
135 53 135 3 0 24 -53 46 -117z"/>
<path d="M5660 1485 l0 -345 65 0 65 0 0 345 0 345 -65 0 -65 0 0 -345z"/>
<path d="M860 1750 l0 -70 70 0 71 0 -3 68 -3 67 -67 3 -68 3 0 -71z"/>
<path d="M332 1743 l3 -68 68 -3 67 -3 0 71 0 70 -70 0 -71 0 3 -67z"/>
<path d="M345 1548 c-3 -7 -3 -38 -2 -68 l3 -55 67 -3 67 -3 0 71 0 70 -65 0
c-44 0 -67 -4 -70 -12z"/>
<path d="M620 1495 l0 -66 63 3 62 3 3 63 3 62 -66 0 -65 0 0 -65z"/>
<path d="M870 1490 l0 -70 70 0 70 0 0 70 0 70 -70 0 -70 0 0 -70z"/>
<path d="M1120 1490 l0 -70 70 0 70 0 0 70 0 70 -70 0 -70 0 0 -70z"/>
<path d="M102 1488 l3 -63 63 -3 62 -3 0 66 0 65 -65 0 -66 0 3 -62z"/>
<path d="M867 1303 c-4 -3 -7 -35 -7 -70 l0 -63 70 0 70 0 0 70 0 70 -63 0
c-35 0 -67 -3 -70 -7z"/>
<path d="M340 1230 l0 -71 68 3 67 3 3 68 3 67 -71 0 -70 0 0 -70z"/>
<path d="M602 1233 l3 -68 68 -3 67 -3 0 71 0 70 -70 0 -71 0 3 -67z"/>
<path d="M610 975 l0 -65 65 0 65 0 0 59 c0 67 -4 71 -81 71 l-49 0 0 -65z"/>
</g>
</svg>
